<svg width="380" height="380" viewBox="0 0 380 380" fill="none" xmlns="http://www.w3.org/2000/svg">
<g filter="url(#filter0_d)">
<rect x="40" y="15" width="300" height="300" rx="65" fill="url(#paint0_linear)"/>
</g>
<g filter="url(#filter1_d)">
<path d="M192.5 43H168.79V78.8548L145.081 86.8226L121.371 62.9194L89.7581 94.7903L113.468 118.694L105.565 142.597H70V190.403H105.565L113.468 214.306L89.7581 238.21L121.371 270.081L145.081 246.177L168.79 254.145V290H192.5H216.21V254.145L239.919 246.177L263.629 270.081L295.242 238.21L271.532 214.306L279.435 190.403H315V142.597H279.435L271.532 118.694L295.242 94.7903L263.629 62.9194L239.919 86.8226L216.21 78.8548V43H192.5Z" fill="#FF8A00"/>
<g filter="url(#filter2_i)">
<path d="M192.5 190.403C205.594 190.403 216.21 179.701 216.21 166.5C216.21 153.299 205.594 142.597 192.5 142.597C179.405 142.597 168.79 153.299 168.79 166.5C168.79 179.701 179.405 190.403 192.5 190.403Z" fill="white"/>
<path d="M192.5 190.403C205.594 190.403 216.21 179.701 216.21 166.5C216.21 153.299 205.594 142.597 192.5 142.597C179.405 142.597 168.79 153.299 168.79 166.5C168.79 179.701 179.405 190.403 192.5 190.403Z" stroke="white"/>
</g>
</g>
<defs>
<filter id="filter0_d" x="0" y="0" width="380" height="380" filterUnits="userSpaceOnUse" color-interpolation-filters="sRGB">
<feFlood flood-opacity="0" result="BackgroundImageFix"/>
<feColorMatrix in="SourceAlpha" type="matrix" values="0 0 0 0 0 0 0 0 0 0 0 0 0 0 0 0 0 0 127 0"/>
<feOffset dy="25"/>
<feGaussianBlur stdDeviation="20"/>
<feColorMatrix type="matrix" values="0 0 0 0 0 0 0 0 0 0 0 0 0 0 0 0 0 0 0.25 0"/>
<feBlend mode="normal" in2="BackgroundImageFix" result="effect1_dropShadow"/>
<feBlend mode="normal" in="SourceGraphic" in2="effect1_dropShadow" result="shape"/>
</filter>
<filter id="filter1_d" x="66" y="43" width="253" height="255" filterUnits="userSpaceOnUse" color-interpolation-filters="sRGB">
<feFlood flood-opacity="0" result="BackgroundImageFix"/>
<feColorMatrix in="SourceAlpha" type="matrix" values="0 0 0 0 0 0 0 0 0 0 0 0 0 0 0 0 0 0 127 0"/>
<feOffset dy="4"/>
<feGaussianBlur stdDeviation="2"/>
<feColorMatrix type="matrix" values="0 0 0 0 0 0 0 0 0 0 0 0 0 0 0 0 0 0 0.25 0"/>
<feBlend mode="normal" in2="BackgroundImageFix" result="effect1_dropShadow"/>
<feBlend mode="normal" in="SourceGraphic" in2="effect1_dropShadow" result="shape"/>
</filter>
<filter id="filter2_i" x="168.79" y="142.597" width="47.4194" height="51.8064" filterUnits="userSpaceOnUse" color-interpolation-filters="sRGB">
<feFlood flood-opacity="0" result="BackgroundImageFix"/>
<feBlend mode="normal" in="SourceGraphic" in2="BackgroundImageFix" result="shape"/>
<feColorMatrix in="SourceAlpha" type="matrix" values="0 0 0 0 0 0 0 0 0 0 0 0 0 0 0 0 0 0 127 0" result="hardAlpha"/>
<feOffset dy="4"/>
<feGaussianBlur stdDeviation="2"/>
<feComposite in2="hardAlpha" operator="arithmetic" k2="-1" k3="1"/>
<feColorMatrix type="matrix" values="0 0 0 0 0 0 0 0 0 0 0 0 0 0 0 0 0 0 0.25 0"/>
<feBlend mode="normal" in2="shape" result="effect1_innerShadow"/>
</filter>
<linearGradient id="paint0_linear" x1="190" y1="15" x2="190" y2="315" gradientUnits="userSpaceOnUse">
<stop stop-color="#60B8EA"/>
<stop offset="1" stop-color="#04486F"/>
</linearGradient>
</defs>
</svg>
