<svg width="300" height="300" viewBox="0 0 300 300" fill="none" xmlns="http://www.w3.org/2000/svg">
<rect width="300" height="300" rx="65" fill="url(#paint0_linear)"/>
<g filter="url(#filter0_d)">
<path d="M152.5 28H128.79V63.8548L105.081 71.8226L81.371 47.9194L49.7581 79.7903L73.4677 103.694L65.5645 127.597H30V175.403H65.5645L73.4677 199.306L49.7581 223.21L81.371 255.081L105.081 231.177L128.79 239.145V275H152.5H176.21V239.145L199.919 231.177L223.629 255.081L255.242 223.21L231.532 199.306L239.435 175.403H275V127.597H239.435L231.532 103.694L255.242 79.7903L223.629 47.9194L199.919 71.8226L176.21 63.8548V28H152.5Z" fill="#FF8A00"/>
<g filter="url(#filter1_i)">
<path d="M152.5 175.403C165.594 175.403 176.21 164.701 176.21 151.5C176.21 138.299 165.594 127.597 152.5 127.597C139.405 127.597 128.79 138.299 128.79 151.5C128.79 164.701 139.405 175.403 152.5 175.403Z" fill="white"/>
<path d="M152.5 175.403C165.594 175.403 176.21 164.701 176.21 151.5C176.21 138.299 165.594 127.597 152.5 127.597C139.405 127.597 128.79 138.299 128.79 151.5C128.79 164.701 139.405 175.403 152.5 175.403Z" stroke="white"/>
</g>
</g>
<defs>
<filter id="filter0_d" x="26" y="28" width="253" height="255" filterUnits="userSpaceOnUse" color-interpolation-filters="sRGB">
<feFlood flood-opacity="0" result="BackgroundImageFix"/>
<feColorMatrix in="SourceAlpha" type="matrix" values="0 0 0 0 0 0 0 0 0 0 0 0 0 0 0 0 0 0 127 0"/>
<feOffset dy="4"/>
<feGaussianBlur stdDeviation="2"/>
<feColorMatrix type="matrix" values="0 0 0 0 0 0 0 0 0 0 0 0 0 0 0 0 0 0 0.25 0"/>
<feBlend mode="normal" in2="BackgroundImageFix" result="effect1_dropShadow"/>
<feBlend mode="normal" in="SourceGraphic" in2="effect1_dropShadow" result="shape"/>
</filter>
<filter id="filter1_i" x="128.79" y="127.597" width="47.4194" height="51.8064" filterUnits="userSpaceOnUse" color-interpolation-filters="sRGB">
<feFlood flood-opacity="0" result="BackgroundImageFix"/>
<feBlend mode="normal" in="SourceGraphic" in2="BackgroundImageFix" result="shape"/>
<feColorMatrix in="SourceAlpha" type="matrix" values="0 0 0 0 0 0 0 0 0 0 0 0 0 0 0 0 0 0 127 0" result="hardAlpha"/>
<feOffset dy="4"/>
<feGaussianBlur stdDeviation="2"/>
<feComposite in2="hardAlpha" operator="arithmetic" k2="-1" k3="1"/>
<feColorMatrix type="matrix" values="0 0 0 0 0 0 0 0 0 0 0 0 0 0 0 0 0 0 0.25 0"/>
<feBlend mode="normal" in2="shape" result="effect1_innerShadow"/>
</filter>
<linearGradient id="paint0_linear" x1="150" y1="0" x2="150" y2="300" gradientUnits="userSpaceOnUse">
<stop stop-color="#60B8EA"/>
<stop offset="1" stop-color="#04486F"/>
</linearGradient>
</defs>
</svg>
